<svg xmlns="http://www.w3.org/2000/svg" viewBox="0 0 48 48" fill="none">
  <path d="M24 4C15 4 10 12 10 20c0 4 1 7 2 10-2 1-4 3-4 5 0 3 3 5 7 5 2 0 4-1 5-2h8c1 1 3 2 5 2 4 0 7-2 7-5 0-2-2-4-4-5 1-3 2-6 2-10 0-8-5-16-14-16z" fill="#FCC624"/>
  <circle cx="19" cy="18" r="3" fill="#000"/>
  <circle cx="29" cy="18" r="3" fill="#000"/>
  <circle cx="18" cy="17" r="1" fill="#fff"/>
  <circle cx="28" cy="17" r="1" fill="#fff"/>
  <path d="M20 26c2 2 6 2 8 0" stroke="#000" stroke-width="2" fill="none" stroke-linecap="round"/>
</svg>
